<svg width="181" height="26" xmlns="http://www.w3.org/2000/svg"><path d="M10.103 17.258C6.684 16.83 4.256 13.68 4.68 10.22a6.312 6.312 0 011.527-3.415L2.93 3.49A10.997 10.997 0 00.083 9.645c-.737 6.026 3.494 11.516 9.452 12.262.552.069 1.1.094 1.64.08l-.282-4.682a6.22 6.22 0 01-.79-.047m1.533-12.525c2.847.356 5.005 2.6 5.404 5.338l4.622-.38C21.086 4.782 17.27.717 12.205.083c-3.333-.417-6.499.74-8.77 2.894l3.277 3.316a6.175 6.175 0 014.924-1.561m10.099 6.282c0-.202-.003-.403-.013-.603l-4.617.38c.01.322-.004.65-.044.98-.36 2.942-2.669 5.158-5.454 5.49l.282 4.68h9.846V11.014zm151.689-1.761a.357.357 0 01-.099-.263V5.926h-1.033c-.227 0-.34-.1-.34-.3 0-.201.113-.301.34-.301h2.798c.226 0 .34.1.34.3 0 .2-.114.3-.34.3h-1.033V8.99c0 .11-.033.197-.1.263a.357.357 0 01-.263.1.364.364 0 01-.27-.1m6.244-3.858a.362.362 0 01.096.264v3.359c0 .106-.03.19-.09.25a.322.322 0 01-.238.09.303.303 0 01-.233-.09.35.35 0 01-.085-.25V6.681l-.965 1.826a.557.557 0 01-.147.185.303.303 0 01-.187.06.313.313 0 01-.188-.057.515.515 0 01-.147-.188l-.97-1.798v2.309c0 .102-.03.185-.089.247a.307.307 0 01-.235.094.303.303 0 01-.232-.091.35.35 0 01-.086-.25V5.659a.37.37 0 01.094-.264.331.331 0 01.252-.099c.148 0 .263.081.347.244l1.26 2.4 1.253-2.4c.083-.163.195-.244.335-.244.106 0 .19.033.255.1m-75.628 5.906a6.304 6.304 0 00-.5-.565 6.333 6.333 0 00-1.903-1.304 5.486 5.486 0 00-2.276-.486 6.57 6.57 0 00-2.402.534 6.215 6.215 0 00-1.915 1.294 5.913 5.913 0 00-1.73 4.22c0 .86.158 1.657.473 2.387a5.79 5.79 0 001.295 1.892c.547.53 1.182.945 1.903 1.244a6.06 6.06 0 002.602.44.758.758 0 00.256-1.467l-.032-.011-.014-.004a.751.751 0 00-.236-.036l-.054.003a4.302 4.302 0 01-1.925-.344 4.476 4.476 0 01-1.419-.959 4.528 4.528 0 01-.959-1.418 4.335 4.335 0 01-.347-1.728c0-.616.116-1.196.347-1.743a4.52 4.52 0 01.96-1.43c.405-.406.88-.726 1.418-.957a4.303 4.303 0 011.73-.35c.613 0 1.193.116 1.74.35a4.439 4.439 0 011.716 1.271c.038.045.123.153.126.156a.758.758 0 001.146-.988M66.126 3.189a.77.77 0 01.561-.236.77.77 0 01.561.236c.158.16.236.345.236.56v14.234c0 .946.332 1.42.997 1.42.2 0 .375.071.524.213.15.14.225.32.225.534a.707.707 0 01-.225.537.734.734 0 01-.524.21c-1.727 0-2.591-.97-2.591-2.914V3.75a.77.77 0 01.236-.561m4.35 21.026c.431 0 .814-.068 1.146-.2.333-.134.602-.283.81-.45.208-.165.433-.46.674-.885.242-.424.423-.772.548-1.045.125-.275.32-.745.585-1.41l-4.162-9.895a1.22 1.22 0 01-.075-.348c0-.233.075-.424.225-.574a.77.77 0 01.573-.224c.364 0 .614.174.747.523l3.516 8.6 3.513-8.6c.132-.349.383-.523.75-.523.232 0 .422.074.572.224.148.15.223.34.223.574 0 .083-.023.198-.075.348l-4.909 11.691c-.532 1.262-1.156 2.194-1.869 2.79-.716.6-1.646.899-2.792.899a.725.725 0 01-.748-.749.723.723 0 01.748-.746m81.704 0c.432 0 .814-.068 1.147-.2.333-.134.602-.283.81-.45.208-.165.432-.46.673-.885.242-.424.424-.772.549-1.045.125-.275.319-.745.585-1.41l-4.163-9.895a1.218 1.218 0 01-.074-.348c0-.233.074-.424.225-.574a.77.77 0 01.573-.224c.364 0 .613.174.747.523l3.515 8.6 3.513-8.6c.133-.349.383-.523.75-.523.232 0 .423.074.572.224.149.15.223.34.223.574 0 .083-.023.198-.074.348l-4.91 11.691c-.53 1.262-1.155 2.194-1.869 2.79-.715.6-1.645.899-2.792.899a.726.726 0 01-.748-.749.724.724 0 01.748-.746M83.014 9.19V6.766c0-.215.079-.402.238-.561a.765.765 0 01.559-.236.77.77 0 01.56.236.768.768 0 01.237.56V9.19h1.621c.216 0 .394.07.537.211.14.142.211.321.211.537a.73.73 0 01-.21.535.728.728 0 01-.538.213h-1.621v7.073c0 .514.133.917.4 1.208.265.291.614.435 1.046.435.216 0 .4.073.549.214a.7.7 0 01.224.534.707.707 0 01-.224.537.772.772 0 01-.549.211c-.963 0-1.711-.29-2.243-.87-.532-.583-.797-1.339-.797-2.269v-7.073h-.973a.725.725 0 01-.747-.747.73.73 0 01.212-.538c.14-.14.32-.21.535-.21h.973zm8.271.722v10.119a.774.774 0 01-.224.572.773.773 0 01-.573.225.775.775 0 01-.574-.225.771.771 0 01-.224-.572V9.912c0-.234.075-.424.224-.574a.781.781 0 01.574-.224.78.78 0 01.573.224.78.78 0 01.224.574m-.797-3.142c-.632 0-.949-.314-.949-.947 0-.665.317-.997.949-.997.63 0 .946.332.946.997 0 .633-.316.947-.946.947m29.148-3.582a.765.765 0 01.56-.236c.216 0 .403.079.562.236.157.16.236.345.236.561v14.233c0 .946.33 1.42.995 1.42.2 0 .376.072.525.213a.7.7 0 01.224.534.708.708 0 01-.224.537.735.735 0 01-.525.21c-1.727 0-2.59-.97-2.59-2.914V3.75c0-.216.078-.402.237-.561m13.746 17.142l-2.292-7.902-2.293 7.902c-.117.382-.375.573-.774.573-.366 0-.614-.174-.748-.524l-3.662-10.044a.999.999 0 01-.076-.348c0-.234.078-.425.236-.574a.795.795 0 01.56-.225c.367 0 .616.175.75.524l2.889 8.25 2.368-8.25c.1-.35.35-.524.75-.524.398 0 .647.175.746.524l2.368 8.25 2.893-8.25c.132-.35.381-.524.747-.524.216 0 .403.076.56.225.158.15.237.34.237.574 0 .1-.025.214-.073.348L134.9 20.38c-.131.35-.382.524-.746.524-.4 0-.656-.191-.773-.573m33.472-9.821c-1.48 0-2.218.498-2.218 1.495 0 .483.224.88.672 1.197.45.315.998.577 1.645.783.65.21 1.292.436 1.932.688.64.25 1.184.622 1.633 1.121.45.498.673 1.114.673 1.843 0 1.081-.395 1.9-1.185 2.456-.79.557-1.806.836-3.053.836-.947 0-1.802-.184-2.566-.55-.766-.364-1.33-.78-1.696-1.246-.116-.166-.174-.324-.174-.472a.7.7 0 01.211-.512.694.694 0 01.511-.211c.2 0 .382.083.548.249.815.813 1.87 1.221 3.166 1.221.782 0 1.416-.141 1.907-.424.49-.283.736-.731.736-1.347 0-.466-.224-.85-.673-1.158-.45-.308-.995-.564-1.634-.773a37.042 37.042 0 01-1.93-.685 4.14 4.14 0 01-1.646-1.135c-.45-.506-.674-1.132-.674-1.881 0-.997.353-1.75 1.06-2.255.706-.507 1.624-.761 2.755-.761 1.728 0 2.99.533 3.789 1.596.114.15.173.307.173.473 0 .2-.07.37-.21.512a.7.7 0 01-.512.21.71.71 0 01-.523-.224c-.731-.698-1.636-1.047-2.717-1.047m-139.225 4.43c0 .607.115 1.178.345 1.712a4.475 4.475 0 002.356 2.355 4.254 4.254 0 001.713.346c.591 0 1.15-.111 1.677-.333.526-.223.99-.53 1.393-.924a4.51 4.51 0 00.961-1.394 4.905 4.905 0 00.406-1.762c0-.61-.115-1.185-.345-1.727a4.411 4.411 0 00-.95-1.418 4.426 4.426 0 00-1.415-.948 4.358 4.358 0 00-1.727-.346 4.26 4.26 0 00-1.713.346 4.446 4.446 0 00-1.405.948 4.47 4.47 0 00-.95 1.418 4.362 4.362 0 00-.346 1.727m4.463-5.992c.79 0 1.542.16 2.257.481.715.32 1.343.752 1.886 1.293a6.231 6.231 0 011.293 1.9c.322.723.482 1.496.482 2.318v5.201a.744.744 0 01-.222.543.735.735 0 01-.543.221.738.738 0 01-.542-.221.742.742 0 01-.223-.543v-1.504a7.688 7.688 0 01-1.959 1.566 4.918 4.918 0 01-2.478.655 5.949 5.949 0 01-4.19-1.677 5.745 5.745 0 01-1.284-1.875 5.925 5.925 0 01-.469-2.366 5.863 5.863 0 011.714-4.18 6.187 6.187 0 011.898-1.283 6.512 6.512 0 012.38-.529m21.043 5.992c0 .607.114 1.178.344 1.712a4.477 4.477 0 002.356 2.355 4.261 4.261 0 001.713.346c.592 0 1.15-.111 1.677-.333.526-.223.99-.53 1.393-.924.401-.395.723-.86.963-1.394a4.971 4.971 0 00.406-1.762 4.43 4.43 0 00-1.296-3.145 4.422 4.422 0 00-1.416-.948 4.359 4.359 0 00-1.727-.346c-.609 0-1.178.115-1.713.346a4.443 4.443 0 00-2.356 2.366 4.374 4.374 0 00-.344 1.727m4.463-5.992c.788 0 1.541.16 2.255.481a6.28 6.28 0 011.887 1.293 6.22 6.22 0 011.293 1.9c.322.723.482 1.496.482 2.318v5.201a.744.744 0 01-.222.543.735.735 0 01-.542.221.733.733 0 01-.542-.221.739.739 0 01-.222-.543v-1.504a7.72 7.72 0 01-1.96 1.566 4.918 4.918 0 01-2.48.655 6 6 0 01-2.304-.444 5.97 5.97 0 01-1.887-1.233 5.774 5.774 0 01-1.282-1.875 5.924 5.924 0 01-.467-2.366c0-.822.15-1.591.455-2.306a5.903 5.903 0 011.257-1.874 6.196 6.196 0 011.899-1.283 6.504 6.504 0 012.38-.529m82.995 5.992a4.3 4.3 0 00.343 1.712c.232.535.549 1.004.95 1.405.403.405.873.72 1.406.95a4.263 4.263 0 001.714.346 4.29 4.29 0 001.677-.333c.526-.223.99-.53 1.393-.924.401-.395.723-.86.962-1.394a4.93 4.93 0 00.406-1.762 4.441 4.441 0 00-1.296-3.145 4.401 4.401 0 00-1.417-.948 4.347 4.347 0 00-1.725-.346c-.61 0-1.179.115-1.714.346a4.474 4.474 0 00-1.406.948 4.48 4.48 0 00-.95 1.418 4.387 4.387 0 00-.343 1.727m4.462-5.992c.79 0 1.541.16 2.256.481.716.32 1.343.752 1.886 1.293a6.232 6.232 0 011.295 1.9c.32.723.481 1.496.481 2.318v5.201a.736.736 0 01-.223.543.732.732 0 01-.542.221.735.735 0 01-.542-.221.741.741 0 01-.222-.543v-1.504a7.714 7.714 0 01-1.96 1.566 4.917 4.917 0 01-2.478.655c-.822 0-1.59-.15-2.305-.444a5.97 5.97 0 01-1.886-1.233 5.739 5.739 0 01-1.283-1.875 5.908 5.908 0 01-.468-2.366 5.863 5.863 0 011.714-4.18 6.16 6.16 0 011.897-1.283 6.511 6.511 0 012.38-.529m-38.465 5.992a4.3 4.3 0 00.343 1.712c.232.535.549 1.004.95 1.405.403.405.873.72 1.406.95a4.263 4.263 0 001.714.346 4.29 4.29 0 001.677-.333c.526-.223.99-.53 1.393-.924.401-.395.723-.86.962-1.394a4.925 4.925 0 00.406-1.762 4.44 4.44 0 00-1.295-3.145 4.402 4.402 0 00-1.418-.948 4.346 4.346 0 00-1.725-.346c-.61 0-1.179.115-1.714.346a4.474 4.474 0 00-1.405.948 4.48 4.48 0 00-.95 1.418 4.387 4.387 0 00-.344 1.727m4.462-5.992c.79 0 1.541.16 2.256.481.716.32 1.343.752 1.886 1.293a6.227 6.227 0 011.295 1.9c.32.723.48 1.496.48 2.318v5.201a.736.736 0 01-.222.543.732.732 0 01-.542.221.734.734 0 01-.542-.221.741.741 0 01-.222-.543v-1.504a7.71 7.71 0 01-1.96 1.566 4.916 4.916 0 01-2.478.655 6.01 6.01 0 01-2.306-.444 5.973 5.973 0 01-1.885-1.233 5.743 5.743 0 01-1.283-1.875 5.912 5.912 0 01-.468-2.366 5.863 5.863 0 011.714-4.18 6.158 6.158 0 011.897-1.283 6.51 6.51 0 012.38-.529M45.07 9.04c-.782 0-1.466.167-2.057.498-.59.333-1.01.749-1.26 1.246v-.796a.76.76 0 00-.236-.574.791.791 0 00-.56-.225.784.784 0 00-.56.225.754.754 0 00-.239.574v10.118c0 .234.08.425.239.574a.78.78 0 00.56.224.79.79 0 00.56-.224.756.756 0 00.237-.574l.003-6.667a3.15 3.15 0 013.15-3.15c2.344 0 3.15 1.41 3.15 3.15l.002 6.667c0 .234.076.425.226.574.149.15.34.224.573.224a.779.779 0 00.573-.224.772.772 0 00.225-.574v-6.653c0-2.942-1.53-4.413-4.586-4.413" fill="#FFF"/></svg>